<svg width="22" height="22" viewBox="0 0 22 22" fill="none" xmlns="http://www.w3.org/2000/svg">
<path d="M1.5 9H20.5M1.5 9V19.5C1.5 19.7652 1.60536 20.0196 1.79289 20.2071C1.98043 20.3946 2.23478 20.5 2.5 20.5H19.5C19.7652 20.5 20.0196 20.3946 20.2071 20.2071C20.3946 20.0196 20.5 19.7652 20.5 19.5V9M1.5 9V4C1.5 3.73478 1.60536 3.48043 1.79289 3.29289C1.98043 3.10536 2.23478 3 2.5 3H19.5C19.7652 3 20.0196 3.10536 20.2071 3.29289C20.3946 3.48043 20.5 3.73478 20.5 4V9" stroke="white" stroke-opacity="0.74" stroke-width="2" stroke-linejoin="round"/>
<path d="M7 1.5V5.5M15 1.5V5.5M13 16.5H16M6 16.5H9M13 12.5H16M6 12.5H9" stroke="white" stroke-opacity="0.74" stroke-width="2" stroke-linecap="round" stroke-linejoin="round"/>
</svg>
