<svg width="24" height="25" viewBox="0 0 24 25" fill="none" xmlns="http://www.w3.org/2000/svg">
<path fill-rule="evenodd" clip-rule="evenodd" d="M20.125 12.5C20.125 14.6549 19.269 16.7215 17.7452 18.2452C16.2215 19.769 14.1549 20.625 12 20.625C9.84512 20.625 7.77849 19.769 6.25476 18.2452C4.73102 16.7215 3.875 14.6549 3.875 12.5C3.875 10.3451 4.73102 8.27849 6.25476 6.75476C7.77849 5.23102 9.84512 4.375 12 4.375C14.1549 4.375 16.2215 5.23102 17.7452 6.75476C19.269 8.27849 20.125 10.3451 20.125 12.5ZM22 12.5C22 15.1522 20.9464 17.6957 19.0711 19.5711C17.1957 21.4464 14.6522 22.5 12 22.5C9.34784 22.5 6.8043 21.4464 4.92893 19.5711C3.05357 17.6957 2 15.1522 2 12.5C2 9.84784 3.05357 7.3043 4.92893 5.42893C6.8043 3.55357 9.34784 2.5 12 2.5C14.6522 2.5 17.1957 3.55357 19.0711 5.42893C20.9464 7.3043 22 9.84784 22 12.5ZM12.9375 7.1875C12.9375 6.93886 12.8387 6.7004 12.6629 6.52459C12.4871 6.34877 12.2486 6.25 12 6.25C11.7514 6.25 11.5129 6.34877 11.3371 6.52459C11.1613 6.7004 11.0625 6.93886 11.0625 7.1875V12.8875L11.3375 13.1625L14.155 15.98C14.2408 16.0721 14.3443 16.146 14.4593 16.1972C14.5743 16.2485 14.6985 16.276 14.8243 16.2782C14.9502 16.2805 15.0753 16.2573 15.192 16.2102C15.3087 16.163 15.4148 16.0928 15.5038 16.0038C15.5928 15.9148 15.663 15.8087 15.7102 15.692C15.7573 15.5753 15.7805 15.4502 15.7782 15.3243C15.776 15.1985 15.7485 15.0743 15.6972 14.9593C15.646 14.8443 15.5721 14.7408 15.48 14.655L12.9375 12.1112V7.1875Z" fill="white" fill-opacity="0.74"/>
</svg>
