<svg xmlns="http://www.w3.org/2000/svg" fill-rule="evenodd" viewBox="0 0 100 100">
    <path  d="M82.34 43.38a1.49 1.49 0 0 0-.17-.85l-11-20.74a1.5 1.5 0 0 0-1.33-.8h-40a1.5 1.5 0 0 0-1.36.86l-9.87 20.74a1.49 1.49 0 0 0-.13.84A11.57 11.57 0 0 0 10 54.56v6.88a11.58 11.58 0 0 0 8 11s0 0 0 .06v11a3.74 3.74 0 0 0 4 3.5h5a3.74 3.74 0 0 0 4-3.46V73h39v10.54A3.74 3.74 0 0 0 74 87h5a3.74 3.74 0 0 0 4-3.46V72.48a11.58 11.58 0 0 0 8-11v-6.92a11.57 11.57 0 0 0-8.66-11.18ZM30.74 24h38.2L79 43H21.73ZM28 83.54c0 .14-.36.46-1 .46h-5c-.59 0-1-.32-1-.46V73h7Zm52 0c0 .14-.36.46-1 .46h-5c-.59 0-1-.32-1-.46V73h7Zm8-22.09A8.57 8.57 0 0 1 79.44 70H21.56A8.57 8.57 0 0 1 13 61.44v-6.88A8.57 8.57 0 0 1 21.56 46h57.88A8.57 8.57 0 0 1 88 54.56Z"/>
    <path d="M24.77 51.61a6.31 6.31 0 1 0 6.31 6.31 6.31 6.31 0 0 0-6.31-6.31Zm0 9.61a3.31 3.31 0 1 1 3.31-3.31 3.31 3.31 0 0 1-3.31 3.31ZM76 51.2a6.31 6.31 0 1 0 6.31 6.31A6.31 6.31 0 0 0 76 51.2Zm0 9.61a3.31 3.31 0 1 1 3.31-3.31A3.31 3.31 0 0 1 76 60.81ZM57.5 59h-15a1.5 1.5 0 0 0 0 3h15a1.5 1.5 0 0 0 0-3ZM48 9h4v4h-4zM36 5h4v4h-4zm4 4h4v4h-4zm4-4h4v4h-4zm8 0h4v4h-4zm4 4h4v4h-4zm4-4h4v4h-4z"/>
</svg>
