<svg xmlns="http://www.w3.org/2000/svg" xmlns:xlink="http://www.w3.org/1999/xlink" width="378" zoomAndPan="magnify" viewBox="0 0 283.5 283.500005" height="378" preserveAspectRatio="xMidYMid meet" version="1.0"><defs><g/></defs><path fill="#ffffff" d="M 0 0 L 283 0 L 283 283 L 0 283 Z M 0 0 " fill-opacity="1" fill-rule="nonzero"/><path fill="#f9f9f4" d="M 0 0 L 283 0 L 283 283 L 0 283 Z M 0 0 " fill-opacity="1" fill-rule="nonzero"/><g fill="#3e6084" fill-opacity="1"><g transform="translate(42.399627, 133.525401)"><g><path d="M 99 -5.453125 L 96.9375 0 L 90.15625 0 L 92.796875 -5.828125 C 89.410156 -6.328125 86.070312 -7.09375 82.78125 -8.125 C 79.488281 -9.164062 76.492188 -10.6875 73.796875 -12.6875 C 69.597656 -8.988281 64.644531 -5.851562 58.9375 -3.28125 C 53.238281 -0.71875 46.910156 0.5625 39.953125 0.5625 C 35.628906 0.5625 31.648438 -0.234375 28.015625 -1.828125 C 24.378906 -3.429688 21.445312 -5.65625 19.21875 -8.5 C 17 -11.351562 15.890625 -14.660156 15.890625 -18.421875 C 15.890625 -21.867188 16.65625 -24.925781 18.1875 -27.59375 C 19.726562 -30.257812 21.71875 -32.515625 24.15625 -34.359375 C 26.601562 -36.210938 29.207031 -37.625 31.96875 -38.59375 C 34.726562 -39.5625 37.328125 -40.046875 39.765625 -40.046875 C 43.585938 -40.046875 46.816406 -39.375 49.453125 -38.03125 C 52.085938 -36.6875 54.078125 -34.945312 55.421875 -32.8125 C 56.765625 -30.675781 57.4375 -28.359375 57.4375 -25.859375 C 57.4375 -22.597656 56.460938 -19.789062 54.515625 -17.4375 C 52.578125 -15.09375 50.148438 -13.289062 47.234375 -12.03125 C 44.328125 -10.78125 41.398438 -10.15625 38.453125 -10.15625 C 36.503906 -10.15625 35.296875 -10.21875 34.828125 -10.34375 C 34.359375 -10.46875 34.125 -10.6875 34.125 -11 C 34.125 -11.375 34.3125 -11.5625 34.6875 -11.5625 C 34.9375 -11.5625 35.265625 -11.515625 35.671875 -11.421875 C 36.085938 -11.328125 36.703125 -11.28125 37.515625 -11.28125 C 40.773438 -11.28125 43.796875 -11.859375 46.578125 -13.015625 C 49.367188 -14.179688 51.625 -15.84375 53.34375 -18 C 55.070312 -20.164062 55.9375 -22.722656 55.9375 -25.671875 C 55.9375 -28.796875 54.726562 -31.378906 52.3125 -33.421875 C 49.90625 -35.460938 46.320312 -36.484375 41.5625 -36.484375 C 38.863281 -36.484375 36.148438 -36.007812 33.421875 -35.0625 C 30.691406 -34.125 28.179688 -32.773438 25.890625 -31.015625 C 23.609375 -29.265625 21.773438 -27.179688 20.390625 -24.765625 C 19.015625 -22.359375 18.328125 -19.679688 18.328125 -16.734375 C 18.328125 -13.660156 19.359375 -10.898438 21.421875 -8.453125 C 23.492188 -6.015625 26.175781 -4.085938 29.46875 -2.671875 C 32.757812 -1.265625 36.160156 -0.5625 39.671875 -0.5625 C 46.003906 -0.5625 51.816406 -1.609375 57.109375 -3.703125 C 62.410156 -5.804688 67.628906 -9.050781 72.765625 -13.4375 C 69.503906 -16.007812 66.726562 -18.972656 64.4375 -22.328125 C 62.15625 -25.679688 61.015625 -29.519531 61.015625 -33.84375 C 61.015625 -37.164062 61.734375 -39.9375 63.171875 -42.15625 C 64.617188 -44.382812 66.4375 -46.046875 68.625 -47.140625 C 70.820312 -48.242188 73.019531 -48.796875 75.21875 -48.796875 C 78.09375 -48.796875 80.800781 -48.179688 83.34375 -46.953125 C 85.882812 -45.734375 88.125 -44.101562 90.0625 -42.0625 C 92.007812 -40.03125 93.578125 -37.789062 94.765625 -35.34375 C 101.347656 -42.488281 107.285156 -48.285156 112.578125 -52.734375 C 117.878906 -57.191406 122.347656 -60.453125 125.984375 -62.515625 C 129.617188 -64.585938 132.125 -65.625 133.5 -65.625 C 133.8125 -65.625 133.96875 -65.40625 133.96875 -64.96875 C 133.96875 -64.71875 132.554688 -62.960938 129.734375 -59.703125 C 126.921875 -56.441406 123.222656 -51.082031 118.640625 -43.625 C 114.816406 -37.351562 111.429688 -31.160156 108.484375 -25.046875 C 105.546875 -18.941406 102.507812 -12.785156 99.375 -6.578125 C 100.6875 -6.578125 102.015625 -6.734375 103.359375 -7.046875 C 104.710938 -7.359375 106.140625 -7.800781 107.640625 -8.375 C 110.210938 -9.4375 112.046875 -10.546875 113.140625 -11.703125 C 114.242188 -12.859375 114.921875 -13.4375 115.171875 -13.4375 C 115.484375 -13.4375 115.640625 -13.28125 115.640625 -12.96875 C 115.640625 -12.78125 115.007812 -12.109375 113.75 -10.953125 C 112.5 -9.796875 110.632812 -8.632812 108.15625 -7.46875 C 105.6875 -6.3125 102.632812 -5.640625 99 -5.453125 Z M 96.171875 -21.90625 C 96.171875 -23.78125 96 -25.769531 95.65625 -27.875 C 95.3125 -29.976562 94.859375 -31.71875 94.296875 -33.09375 C 91.035156 -29.832031 87.835938 -26.507812 84.703125 -23.125 C 81.566406 -19.738281 78.25 -16.539062 74.75 -13.53125 C 77.375 -11.53125 80.347656 -10.023438 83.671875 -9.015625 C 86.992188 -8.015625 90.160156 -7.328125 93.171875 -6.953125 C 94.046875 -9.335938 94.765625 -11.78125 95.328125 -14.28125 C 95.890625 -16.789062 96.171875 -19.332031 96.171875 -21.90625 Z M 96.546875 -13.921875 L 96.734375 -13.71875 C 100.691406 -22.8125 105.457031 -31.507812 111.03125 -39.8125 C 116.613281 -48.113281 123.007812 -55.710938 130.21875 -62.609375 L 130.03125 -62.796875 C 128.957031 -62.671875 127.210938 -61.820312 124.796875 -60.25 C 122.390625 -58.6875 119.570312 -56.570312 116.34375 -53.90625 C 113.113281 -51.25 109.679688 -48.226562 106.046875 -44.84375 C 102.410156 -41.457031 98.804688 -37.851562 95.234375 -34.03125 C 96.046875 -32.15625 96.59375 -30.242188 96.875 -28.296875 C 97.164062 -26.359375 97.3125 -24.445312 97.3125 -22.5625 C 97.3125 -21.0625 97.25 -19.585938 97.125 -18.140625 C 97 -16.703125 96.804688 -15.296875 96.546875 -13.921875 Z M 64.59375 -32.15625 C 64.59375 -27.957031 65.484375 -24.414062 67.265625 -21.53125 C 69.054688 -18.644531 71.171875 -16.234375 73.609375 -14.296875 C 77.242188 -17.359375 80.691406 -20.597656 83.953125 -24.015625 C 87.210938 -27.429688 90.503906 -30.863281 93.828125 -34.3125 C 92.140625 -37.445312 90.039062 -40.171875 87.53125 -42.484375 C 85.019531 -44.804688 81.820312 -45.96875 77.9375 -45.96875 C 75.738281 -45.96875 73.617188 -45.484375 71.578125 -44.515625 C 69.546875 -43.546875 67.875 -42.039062 66.5625 -40 C 65.25 -37.96875 64.59375 -35.351562 64.59375 -32.15625 Z M 64.59375 -32.15625 "/></g></g></g><g fill="#3e6084" fill-opacity="1"><g transform="translate(76.062931, 178.859608)"><g><path d="M 101.859375 -57.234375 L 101.65625 -57.4375 C 100.375 -56.851562 98.894531 -56.160156 97.21875 -55.359375 C 95.550781 -54.554688 93.863281 -53.863281 92.15625 -53.28125 C 90.457031 -52.707031 88.867188 -52.421875 87.390625 -52.421875 C 85.210938 -52.421875 83.507812 -53.0625 82.28125 -54.34375 C 81.0625 -55.632812 80.453125 -57.722656 80.453125 -60.609375 C 80.453125 -61.960938 80.515625 -62.894531 80.640625 -63.40625 C 80.773438 -63.914062 80.84375 -64.332031 80.84375 -64.65625 C 80.84375 -65.101562 80.425781 -65.328125 79.59375 -65.328125 C 78.238281 -65.265625 76.421875 -64.507812 74.140625 -63.0625 C 71.867188 -61.625 69.125 -59.039062 65.90625 -55.3125 C 63.144531 -52.164062 61.425781 -49.882812 60.75 -48.46875 C 60.082031 -47.050781 59.585938 -46.34375 59.265625 -46.34375 C 58.878906 -46.34375 58.6875 -46.503906 58.6875 -46.828125 C 58.6875 -47.023438 59.132812 -47.84375 60.03125 -49.28125 C 60.925781 -50.726562 62.128906 -52.460938 63.640625 -54.484375 C 65.148438 -56.515625 66.898438 -58.507812 68.890625 -60.46875 C 70.890625 -62.425781 72.960938 -64.0625 75.109375 -65.375 C 77.265625 -66.695312 79.429688 -67.328125 81.609375 -67.265625 C 83.085938 -67.265625 84.257812 -66.84375 85.125 -66 C 86 -65.164062 86.5 -63.429688 86.625 -60.796875 C 86.75 -57.972656 87.003906 -56.191406 87.390625 -55.453125 C 87.773438 -54.710938 88.390625 -54.34375 89.234375 -54.34375 C 90.960938 -54.34375 92.789062 -54.726562 94.71875 -55.5 C 96.644531 -56.269531 98.457031 -57.148438 100.15625 -58.140625 C 101.863281 -59.140625 103.296875 -59.992188 104.453125 -60.703125 C 107.796875 -62.765625 110.1875 -64.320312 111.625 -65.375 C 113.070312 -66.4375 114.035156 -67.175781 114.515625 -67.59375 C 115.003906 -68.007812 115.472656 -68.21875 115.921875 -68.21875 C 116.566406 -68.21875 117.046875 -68.054688 117.359375 -67.734375 C 117.679688 -67.421875 117.84375 -67.035156 117.84375 -66.578125 C 117.84375 -65.878906 117.410156 -65.300781 116.546875 -64.84375 C 115.679688 -64.394531 114.601562 -63.976562 113.3125 -63.59375 C 112.03125 -63.207031 110.710938 -62.707031 109.359375 -62.09375 C 108.015625 -61.488281 106.828125 -60.707031 105.796875 -59.75 C 104.066406 -58.070312 102.1875 -55.53125 100.15625 -52.125 C 98.132812 -48.71875 95.851562 -44.6875 93.3125 -40.03125 C 90.78125 -35.375 87.84375 -30.285156 84.5 -24.765625 C 79.363281 -16.160156 73.117188 -9.785156 65.765625 -5.640625 C 58.410156 -1.492188 50.617188 0.578125 42.390625 0.578125 C 37.191406 0.578125 32.757812 -0.253906 29.09375 -1.921875 C 25.4375 -3.597656 22.644531 -5.863281 20.71875 -8.71875 C 18.789062 -11.582031 17.828125 -14.78125 17.828125 -18.3125 C 17.828125 -21.519531 18.515625 -24.503906 19.890625 -27.265625 C 21.273438 -30.023438 23.171875 -32.484375 25.578125 -34.640625 C 27.992188 -36.796875 30.722656 -38.46875 33.765625 -39.65625 C 36.816406 -40.84375 40.015625 -41.4375 43.359375 -41.4375 C 46.253906 -41.4375 49.082031 -40.890625 51.84375 -39.796875 C 54.601562 -38.703125 56.878906 -37.078125 58.671875 -34.921875 C 60.472656 -32.773438 61.375 -30.0625 61.375 -26.78125 C 61.375 -23.632812 60.363281 -20.820312 58.34375 -18.34375 C 56.320312 -15.875 53.753906 -13.929688 50.640625 -12.515625 C 47.523438 -11.109375 44.359375 -10.40625 41.140625 -10.40625 C 39.472656 -10.40625 37.835938 -10.597656 36.234375 -10.984375 C 34.628906 -11.367188 33.328125 -11.800781 32.328125 -12.28125 C 31.328125 -12.769531 30.828125 -13.109375 30.828125 -13.296875 C 30.828125 -13.679688 31.019531 -13.875 31.40625 -13.875 C 31.539062 -13.875 32.457031 -13.488281 34.15625 -12.71875 C 35.863281 -11.945312 38.097656 -11.5625 40.859375 -11.5625 C 43.804688 -11.5625 46.742188 -12.203125 49.671875 -13.484375 C 52.597656 -14.773438 55.023438 -16.59375 56.953125 -18.9375 C 58.878906 -21.28125 59.84375 -23.992188 59.84375 -27.078125 C 59.84375 -28.878906 59.265625 -30.582031 58.109375 -32.1875 C 56.953125 -33.789062 55.234375 -35.117188 52.953125 -36.171875 C 50.671875 -37.234375 47.796875 -37.765625 44.328125 -37.765625 C 41.304688 -37.765625 38.363281 -37.28125 35.5 -36.3125 C 32.644531 -35.351562 30.078125 -33.957031 27.796875 -32.125 C 25.515625 -30.300781 23.695312 -28.117188 22.34375 -25.578125 C 21 -23.046875 20.328125 -20.171875 20.328125 -16.953125 C 20.328125 -13.234375 21.382812 -10.164062 23.5 -7.75 C 25.625 -5.34375 28.359375 -3.546875 31.703125 -2.359375 C 35.046875 -1.171875 38.546875 -0.578125 42.203125 -0.578125 C 46.960938 -0.578125 51.507812 -1.394531 55.84375 -3.03125 C 60.175781 -4.675781 64.363281 -7.503906 68.40625 -11.515625 C 72.457031 -15.523438 76.410156 -21.097656 80.265625 -28.234375 C 82.390625 -32.148438 84.445312 -35.632812 86.4375 -38.6875 C 88.425781 -41.738281 90.640625 -44.707031 93.078125 -47.59375 C 95.523438 -50.488281 98.453125 -53.703125 101.859375 -57.234375 Z M 97.609375 -32.765625 L 97.609375 -32.5625 C 100.691406 -31.40625 103.035156 -29.671875 104.640625 -27.359375 C 106.253906 -25.046875 107.0625 -22.476562 107.0625 -19.65625 C 107.0625 -18.695312 106.914062 -17.425781 106.625 -15.84375 C 106.332031 -14.269531 106.039062 -12.582031 105.75 -10.78125 C 105.46875 -8.988281 105.328125 -7.226562 105.328125 -5.5 C 105.328125 -4.207031 105.535156 -3.160156 105.953125 -2.359375 C 106.367188 -1.554688 107.054688 -1.15625 108.015625 -1.15625 C 108.722656 -1.15625 109.894531 -1.632812 111.53125 -2.59375 C 113.175781 -3.5625 115.15625 -5.234375 117.46875 -7.609375 C 119.84375 -10.054688 121.492188 -11.875 122.421875 -13.0625 C 123.359375 -14.25 123.921875 -14.84375 124.109375 -14.84375 C 124.429688 -14.84375 124.59375 -14.648438 124.59375 -14.265625 C 124.59375 -14.203125 124.191406 -13.671875 123.390625 -12.671875 C 122.585938 -11.671875 121.222656 -10.113281 119.296875 -8 C 114.535156 -2.664062 110.519531 0 107.25 0 C 106.03125 0 104.789062 -0.460938 103.53125 -1.390625 C 102.28125 -2.328125 101.238281 -3.628906 100.40625 -5.296875 C 99.570312 -6.972656 99.15625 -8.929688 99.15625 -11.171875 C 99.15625 -12.910156 99.296875 -14.742188 99.578125 -16.671875 C 99.867188 -18.597656 100.160156 -20.363281 100.453125 -21.96875 C 100.742188 -23.570312 100.890625 -24.695312 100.890625 -25.34375 C 100.890625 -26.820312 100.582031 -28.007812 99.96875 -28.90625 C 99.363281 -29.800781 98.675781 -30.472656 97.90625 -30.921875 C 97.132812 -31.378906 96.488281 -31.609375 95.96875 -31.609375 C 95.71875 -31.609375 95.347656 -31.507812 94.859375 -31.3125 C 94.378906 -31.125 93.976562 -31.03125 93.65625 -31.03125 C 93.269531 -31.03125 92.898438 -31.171875 92.546875 -31.453125 C 92.191406 -31.742188 92.015625 -31.988281 92.015625 -32.1875 C 92.015625 -32.820312 92.53125 -33.140625 93.5625 -33.140625 C 96.257812 -33.140625 98.859375 -33.925781 101.359375 -35.5 C 103.867188 -37.082031 106.195312 -38.976562 108.34375 -41.1875 C 110.5 -43.40625 112.347656 -45.476562 113.890625 -47.40625 C 116.910156 -51.070312 120.09375 -54.394531 123.4375 -57.375 C 126.78125 -60.363281 130.164062 -62.757812 133.59375 -64.5625 C 137.03125 -66.363281 140.359375 -67.265625 143.578125 -67.265625 C 146.398438 -67.265625 148.628906 -66.617188 150.265625 -65.328125 C 151.910156 -64.046875 152.734375 -62.378906 152.734375 -60.328125 C 152.734375 -59.296875 152.394531 -58.457031 151.71875 -57.8125 C 151.039062 -57.175781 150.15625 -56.859375 149.0625 -56.859375 C 148.226562 -56.859375 147.378906 -57.097656 146.515625 -57.578125 C 145.648438 -58.054688 145.21875 -58.8125 145.21875 -59.84375 C 145.21875 -60.738281 145.441406 -61.441406 145.890625 -61.953125 C 146.335938 -62.472656 146.5625 -63.085938 146.5625 -63.796875 C 146.5625 -64.492188 146.160156 -65.050781 145.359375 -65.46875 C 144.554688 -65.894531 143.515625 -66.109375 142.234375 -66.109375 C 139.984375 -66.109375 137.332031 -64.929688 134.28125 -62.578125 C 131.226562 -60.234375 128.253906 -57.171875 125.359375 -53.390625 C 121.640625 -48.503906 117.609375 -44.289062 113.265625 -40.75 C 108.929688 -37.21875 103.710938 -34.554688 97.609375 -32.765625 Z M 97.609375 -32.765625 "/></g></g></g></svg>